<svg viewBox="0 0 900 240" xmlns="http://www.w3.org/2000/svg" width="900" height="240">
  <defs>
    <linearGradient id="bg" x1="0" y1="0" x2="1" y2="1">
      <stop offset="0%" stop-color="#0d1117"/>
      <stop offset="55%" stop-color="#12003a"/>
      <stop offset="100%" stop-color="#051428"/>
    </linearGradient>
    <filter id="glow" x="-50%" y="-50%" width="200%" height="200%">
      <feGaussianBlur stdDeviation="3" result="b"/>
      <feMerge><feMergeNode in="b"/><feMergeNode in="SourceGraphic"/></feMerge>
    </filter>
    <filter id="softglow" x="-80%" y="-80%" width="260%" height="260%">
      <feGaussianBlur stdDeviation="7" result="b"/>
      <feMerge><feMergeNode in="b"/><feMergeNode in="SourceGraphic"/></feMerge>
    </filter>
    <radialGradient id="screenLight" cx="50%" cy="90%" r="55%">
      <stop offset="0%" stop-color="#2575fc" stop-opacity="0.55"/>
      <stop offset="100%" stop-color="#2575fc" stop-opacity="0"/>
    </radialGradient>
    <radialGradient id="rightAmbient" cx="82%" cy="50%" r="38%">
      <stop offset="0%" stop-color="#6a11cb" stop-opacity="0.22"/>
      <stop offset="100%" stop-color="#6a11cb" stop-opacity="0"/>
    </radialGradient>
    <linearGradient id="skin" x1="0" y1="0" x2="0" y2="1">
      <stop offset="0%" stop-color="#9B6845"/>
      <stop offset="100%" stop-color="#7A4D2E"/>
    </linearGradient>
    <linearGradient id="outfit" x1="0" y1="0" x2="0" y2="1">
      <stop offset="0%" stop-color="#2d1b4e"/>
      <stop offset="100%" stop-color="#150d28"/>
    </linearGradient>
    <linearGradient id="laptopScreen" x1="0" y1="1" x2="0" y2="0">
      <stop offset="0%" stop-color="#080f1c"/>
      <stop offset="100%" stop-color="#0c1e38"/>
    </linearGradient>
    <linearGradient id="titleGrad" x1="0" y1="0" x2="1" y2="0">
      <stop offset="0%" stop-color="#ffffff"/>
      <stop offset="100%" stop-color="#c084fc"/>
    </linearGradient>
  </defs>

  <!-- ===== BACKGROUND ===== -->
  <rect width="900" height="240" fill="url(#bg)"/>
  <rect width="900" height="240" fill="url(#rightAmbient)"/>

  <!-- Dot grid -->
  <g fill="#6a11cb" opacity="0.07">
    <circle cx="60" cy="30" r="1.5"/><circle cx="120" cy="30" r="1.5"/><circle cx="180" cy="30" r="1.5"/>
    <circle cx="240" cy="30" r="1.5"/><circle cx="300" cy="30" r="1.5"/><circle cx="360" cy="30" r="1.5"/>
    <circle cx="420" cy="30" r="1.5"/><circle cx="480" cy="30" r="1.5"/>
    <circle cx="60" cy="80" r="1.5"/><circle cx="120" cy="80" r="1.5"/><circle cx="180" cy="80" r="1.5"/>
    <circle cx="240" cy="80" r="1.5"/><circle cx="300" cy="80" r="1.5"/><circle cx="360" cy="80" r="1.5"/>
    <circle cx="420" cy="80" r="1.5"/><circle cx="480" cy="80" r="1.5"/>
    <circle cx="60" cy="130" r="1.5"/><circle cx="120" cy="130" r="1.5"/><circle cx="180" cy="130" r="1.5"/>
    <circle cx="240" cy="130" r="1.5"/><circle cx="300" cy="130" r="1.5"/><circle cx="360" cy="130" r="1.5"/>
    <circle cx="420" cy="130" r="1.5"/><circle cx="480" cy="130" r="1.5"/>
    <circle cx="60" cy="180" r="1.5"/><circle cx="120" cy="180" r="1.5"/><circle cx="180" cy="180" r="1.5"/>
    <circle cx="240" cy="180" r="1.5"/><circle cx="300" cy="180" r="1.5"/><circle cx="360" cy="180" r="1.5"/>
    <circle cx="420" cy="180" r="1.5"/><circle cx="480" cy="180" r="1.5"/>
    <circle cx="60" cy="222" r="1.5"/><circle cx="120" cy="222" r="1.5"/><circle cx="180" cy="222" r="1.5"/>
    <circle cx="240" cy="222" r="1.5"/><circle cx="300" cy="222" r="1.5"/>
  </g>

  <!-- ===== NEURAL NETWORK ===== -->
  <!-- Node coords:
    Input: (30,60)(30,120)(30,180)
    H1: (100,42)(100,92)(100,142)(100,192)
    H2: (170,62)(170,117)(170,172)
    H3: (240,46)(240,100)(240,156)(240,202)
    H4: (310,66)(310,122)(310,177)
    H5: (380,50)(380,112)(380,172)
    Fade: (448,78)(448,132)(448,182)
    Ghost: (516,95)(516,145)
  -->
  <g fill="none" stroke-linecap="round">
    <!-- Input -> H1 -->
    <g stroke="#5020c0" stroke-width="0.65" opacity="0.45">
      <line x1="30" y1="60" x2="100" y2="42"/><line x1="30" y1="60" x2="100" y2="92"/>
      <line x1="30" y1="60" x2="100" y2="142"/><line x1="30" y1="120" x2="100" y2="42"/>
      <line x1="30" y1="120" x2="100" y2="92"/><line x1="30" y1="120" x2="100" y2="142"/>
      <line x1="30" y1="120" x2="100" y2="192"/><line x1="30" y1="180" x2="100" y2="92"/>
      <line x1="30" y1="180" x2="100" y2="142"/><line x1="30" y1="180" x2="100" y2="192"/>
    </g>
    <!-- H1 -> H2 -->
    <g stroke="#4518b8" stroke-width="0.65" opacity="0.42">
      <line x1="100" y1="42" x2="170" y2="62"/><line x1="100" y1="42" x2="170" y2="117"/>
      <line x1="100" y1="92" x2="170" y2="62"/><line x1="100" y1="92" x2="170" y2="117"/>
      <line x1="100" y1="92" x2="170" y2="172"/><line x1="100" y1="142" x2="170" y2="62"/>
      <line x1="100" y1="142" x2="170" y2="117"/><line x1="100" y1="142" x2="170" y2="172"/>
      <line x1="100" y1="192" x2="170" y2="117"/><line x1="100" y1="192" x2="170" y2="172"/>
    </g>
    <!-- H2 -> H3 -->
    <g stroke="#3810b0" stroke-width="0.65" opacity="0.38">
      <line x1="170" y1="62" x2="240" y2="46"/><line x1="170" y1="62" x2="240" y2="100"/>
      <line x1="170" y1="117" x2="240" y2="46"/><line x1="170" y1="117" x2="240" y2="100"/>
      <line x1="170" y1="117" x2="240" y2="156"/><line x1="170" y1="172" x2="240" y2="100"/>
      <line x1="170" y1="172" x2="240" y2="156"/><line x1="170" y1="172" x2="240" y2="202"/>
    </g>
    <!-- H3 -> H4 -->
    <g stroke="#2c0ca8" stroke-width="0.65" opacity="0.35">
      <line x1="240" y1="46" x2="310" y2="66"/><line x1="240" y1="100" x2="310" y2="66"/>
      <line x1="240" y1="100" x2="310" y2="122"/><line x1="240" y1="156" x2="310" y2="122"/>
      <line x1="240" y1="156" x2="310" y2="177"/><line x1="240" y1="202" x2="310" y2="122"/>
      <line x1="240" y1="202" x2="310" y2="177"/>
    </g>
    <!-- H4 -> H5 -->
    <g stroke="#2008a0" stroke-width="0.65" opacity="0.30">
      <line x1="310" y1="66" x2="380" y2="50"/><line x1="310" y1="66" x2="380" y2="112"/>
      <line x1="310" y1="122" x2="380" y2="50"/><line x1="310" y1="122" x2="380" y2="112"/>
      <line x1="310" y1="122" x2="380" y2="172"/><line x1="310" y1="177" x2="380" y2="112"/>
      <line x1="310" y1="177" x2="380" y2="172"/>
    </g>
    <!-- H5 -> Fade -->
    <g stroke="#180690" stroke-width="0.65" opacity="0.22">
      <line x1="380" y1="50" x2="448" y2="78"/><line x1="380" y1="112" x2="448" y2="78"/>
      <line x1="380" y1="112" x2="448" y2="132"/><line x1="380" y1="172" x2="448" y2="132"/>
      <line x1="380" y1="172" x2="448" y2="182"/>
    </g>
    <!-- Fade -> ghost -->
    <g stroke="#100480" stroke-width="0.65" opacity="0.10">
      <line x1="448" y1="78" x2="516" y2="95"/><line x1="448" y1="132" x2="516" y2="95"/>
      <line x1="448" y1="132" x2="516" y2="145"/><line x1="448" y1="182" x2="516" y2="145"/>
    </g>
  </g>

  <!-- Neural nodes -->
  <g filter="url(#glow)">
    <circle cx="30" cy="60" r="5" fill="#2575fc"/>
    <circle cx="30" cy="120" r="5.5" fill="#2575fc"/>
    <circle cx="30" cy="180" r="5" fill="#2575fc"/>
    <circle cx="100" cy="42" r="4.5" fill="#6a11cb"/>
    <circle cx="100" cy="92" r="5.5" fill="#6a11cb"/>
    <circle cx="100" cy="142" r="4.5" fill="#6a11cb"/>
    <circle cx="100" cy="192" r="4" fill="#6a11cb"/>
    <circle cx="170" cy="62" r="5" fill="#2575fc"/>
    <circle cx="170" cy="117" r="5.5" fill="#2575fc"/>
    <circle cx="170" cy="172" r="4.5" fill="#2575fc"/>
    <circle cx="240" cy="46" r="4" fill="#6a11cb"/>
    <circle cx="240" cy="100" r="5.5" fill="#6a11cb"/>
    <circle cx="240" cy="156" r="4.5" fill="#6a11cb"/>
    <circle cx="240" cy="202" r="4" fill="#6a11cb"/>
    <circle cx="310" cy="66" r="4.5" fill="#2575fc"/>
    <circle cx="310" cy="122" r="5.5" fill="#2575fc"/>
    <circle cx="310" cy="177" r="4" fill="#2575fc"/>
    <circle cx="380" cy="50" r="4" fill="#6a11cb"/>
    <circle cx="380" cy="112" r="5" fill="#6a11cb"/>
    <circle cx="380" cy="172" r="4" fill="#6a11cb"/>
  </g>
  <g filter="url(#glow)" opacity="0.48">
    <circle cx="448" cy="78" r="3.5" fill="#2575fc"/>
    <circle cx="448" cy="132" r="3.5" fill="#2575fc"/>
    <circle cx="448" cy="182" r="3" fill="#2575fc"/>
  </g>
  <g filter="url(#glow)" opacity="0.22">
    <circle cx="516" cy="95" r="2.8" fill="#6a11cb"/>
    <circle cx="516" cy="145" r="2.5" fill="#6a11cb"/>
  </g>

  <!-- ===== TEXT (LEFT) ===== -->
  <text x="50" y="88" font-family="'Georgia', serif" font-size="13" fill="#c084fc" opacity="0.7" letter-spacing="3">HEY, I'M</text>
  <text x="48" y="128" font-family="'Georgia', serif" font-size="34" font-weight="bold" fill="url(#titleGrad)" letter-spacing="1">Angelah Gaolatlhe</text>
  <line x1="48" y1="138" x2="380" y2="138" stroke="#6a11cb" stroke-width="1.2" opacity="0.5"/>
  <text x="50" y="158" font-family="'Courier New', monospace" font-size="11" fill="#2575fc" opacity="0.8" letter-spacing="1">Data Scientist  ·  ML Engineer  ·  Mathematician</text>
  <text x="50" y="180" font-family="'Courier New', monospace" font-size="10" fill="#c084fc" opacity="0.55">📍 AIMS Senegal  ·  🇧🇼 Botswana</text>
  <!-- Subtle binary decoration -->
  <text x="50" y="220" font-family="monospace" font-size="9" fill="#2575fc" opacity="0.18">01001000 01100101 01101100 01101100 01101111</text>

  <!-- ===== WOMAN FIGURE ===== -->

  <!-- Screen glow illuminating scene -->
  <ellipse cx="728" cy="170" rx="100" ry="52" fill="url(#screenLight)" opacity="0.85"/>

  <!-- ---- LAPTOP ---- -->
  <!-- Base/keyboard -->
  <rect x="638" y="192" width="196" height="16" rx="5" fill="#1c2030"/>
  <rect x="635" y="205" width="202" height="8" rx="3" fill="#11151e"/>
  <!-- Screen housing -->
  <path d="M 652 192 L 655 118 Q 655 110 663 110 L 814 110 Q 822 110 822 118 L 819 192 Z" fill="#1c2030"/>
  <!-- Screen surface -->
  <path d="M 658 192 L 661 115 L 816 115 L 813 192 Z" fill="url(#laptopScreen)"/>
  <!-- Screen content: bar chart -->
  <rect x="668" y="163" width="12" height="24" fill="#2575fc" opacity="0.9" rx="1"/>
  <rect x="684" y="150" width="12" height="37" fill="#6a11cb" opacity="0.9" rx="1"/>
  <rect x="700" y="157" width="12" height="30" fill="#2575fc" opacity="0.9" rx="1"/>
  <rect x="716" y="143" width="12" height="44" fill="#6a11cb" opacity="0.9" rx="1"/>
  <rect x="732" y="152" width="12" height="35" fill="#2575fc" opacity="0.9" rx="1"/>
  <rect x="748" y="145" width="12" height="42" fill="#6a11cb" opacity="0.9" rx="1"/>
  <!-- Trend line -->
  <polyline points="674,160 690,148 706,155 722,142 738,150 754,144 770,148"
            fill="none" stroke="#00d4ff" stroke-width="2" opacity="0.85"/>
  <!-- Scatter points -->
  <circle cx="772" cy="136" r="3" fill="#00d4ff" opacity="0.8"/>
  <circle cx="785" cy="147" r="2.5" fill="#2575fc" opacity="0.7"/>
  <circle cx="798" cy="139" r="3" fill="#00d4ff" opacity="0.65"/>
  <circle cx="806" cy="156" r="2" fill="#6a11cb" opacity="0.6"/>
  <!-- Code text on screen -->
  <text x="664" y="127" font-family="monospace" font-size="6.5" fill="#2575fc" opacity="0.85">▶ model.fit(X_train, y_train, epochs=50)</text>
  <text x="664" y="137" font-family="monospace" font-size="6.5" fill="#00d4ff" opacity="0.7">✓  accuracy: 94.2%  |  val_loss: 0.058</text>

  <!-- ---- BODY / CLOTHING ---- -->
  <path d="M 698 128
           C 678 140 664 164 660 192 L 658 210
           L 820 210
           C 818 188 804 158 790 128
           Z" fill="url(#outfit)"/>
  <!-- Collar V-neck -->
  <path d="M 744 128 L 734 148 L 743 158 L 752 148 L 742 128 Z" fill="#3e2060"/>
  <!-- Sleeve highlights (subtle fold lines) -->
  <path d="M 698 128 C 690 142 682 158 678 178" stroke="#3d2060" stroke-width="2" fill="none" opacity="0.4"/>
  <path d="M 790 128 C 800 144 810 160 814 180" stroke="#3d2060" stroke-width="2" fill="none" opacity="0.4"/>

  <!-- Forearms (skin below sleeve) -->
  <path d="M 676 178 C 673 185 668 192 665 200" stroke="url(#skin)" stroke-width="13" fill="none" stroke-linecap="round"/>
  <path d="M 804 178 C 810 186 816 193 818 200" stroke="url(#skin)" stroke-width="12" fill="none" stroke-linecap="round"/>

  <!-- ---- NECK ---- -->
  <rect x="747" y="113" width="18" height="18" rx="6" fill="url(#skin)"/>

  <!-- ---- HEAD ---- -->
  <circle cx="756" cy="88" r="28" fill="url(#skin)"/>

  <!-- Screen light reflection on face (subtle blue-ish) -->
  <ellipse cx="748" cy="94" rx="17" ry="14" fill="#2575fc" opacity="0.055"/>

  <!-- ---- AFRO HAIR ---- -->
  <!-- Shadow/base -->
  <ellipse cx="756" cy="66" rx="52" ry="48" fill="#080200"/>
  <!-- Cluster texture -->
  <circle cx="716" cy="58" r="24" fill="#120500"/>
  <circle cx="756" cy="44" r="28" fill="#0a0200"/>
  <circle cx="796" cy="56" r="24" fill="#120500"/>
  <circle cx="700" cy="74" r="19" fill="#0f0400"/>
  <circle cx="810" cy="72" r="18" fill="#0f0400"/>
  <circle cx="734" cy="40" r="18" fill="#080200"/>
  <circle cx="778" cy="38" r="17" fill="#120500"/>
  <circle cx="756" cy="32" r="15" fill="#0a0200"/>
  <circle cx="720" cy="76" r="14" fill="#0d0300"/>
  <circle cx="790" cy="76" r="13" fill="#0d0300"/>
  <!-- Hair sheen -->
  <ellipse cx="742" cy="53" rx="22" ry="15" fill="#2a1000" opacity="0.42"/>

  <!-- ---- FACE DETAILS ---- -->
  <!-- Eyebrow -->
  <path d="M 758 79 Q 769 74 777 78" stroke="#180800" stroke-width="2.2" fill="none" stroke-linecap="round"/>
  <!-- Eye white -->
  <ellipse cx="769" cy="87" rx="5.5" ry="3.8" fill="#f0e8df"/>
  <!-- Iris -->
  <circle cx="770" cy="87" r="3" fill="#3d1a00"/>
  <!-- Pupil -->
  <circle cx="770" cy="87" r="1.6" fill="#0a0200"/>
  <!-- Catchlight -->
  <circle cx="771.5" cy="85.8" r="0.9" fill="white" opacity="0.9"/>
  <!-- Nose -->
  <path d="M 760 93 Q 762 100 760 102 Q 765 104 771 102" stroke="#6B4028" stroke-width="1.4" fill="none"/>
  <!-- Lips -->
  <path d="M 755 108 Q 762 104 769 108 Q 765 113 755 108 Z" fill="#c07868" opacity="0.92"/>
  <path d="M 755 108 Q 762 111 769 108" fill="none" stroke="#a05848" stroke-width="0.9"/>
  <!-- Cheek subtle warmth -->
  <ellipse cx="779" cy="98" rx="7" ry="5" fill="#c07868" opacity="0.10"/>
  <!-- Earring -->
  <circle cx="727" cy="92" r="3" fill="#ffd700" filter="url(#glow)" opacity="0.88"/>
  <line x1="727" y1="95" x2="727" y2="102" stroke="#ffd700" stroke-width="1.3" opacity="0.72"/>

  <!-- ===== FLOATING SYMBOLS ===== -->
  <text x="552" y="46" font-family="Georgia, serif" font-size="24" fill="#6a11cb" opacity="0.48" filter="url(#glow)">∇</text>
  <text x="838" y="50" font-family="Georgia, serif" font-size="20" fill="#2575fc" opacity="0.4" filter="url(#glow)">∂</text>
  <text x="558" y="210" font-family="Georgia, serif" font-size="20" fill="#2575fc" opacity="0.36">Σ</text>
  <text x="848" y="208" font-family="Georgia, serif" font-size="17" fill="#6a11cb" opacity="0.32">λ</text>
  <text x="862" y="138" font-family="Georgia, serif" font-size="15" fill="#2575fc" opacity="0.28">μ</text>
  <text x="574" y="228" font-family="monospace" font-size="9" fill="#6a11cb" opacity="0.2">∫ f(x)dx</text>

  <!-- Floating data particles -->
  <circle cx="578" cy="68" r="2.8" fill="#2575fc" opacity="0.52" filter="url(#glow)"/>
  <circle cx="568" cy="168" r="2.2" fill="#6a11cb" opacity="0.46" filter="url(#glow)"/>
  <circle cx="852" cy="94" r="2.5" fill="#6a11cb" opacity="0.42" filter="url(#glow)"/>
  <circle cx="864" cy="170" r="2" fill="#2575fc" opacity="0.38"/>
  <circle cx="872" cy="124" r="2.2" fill="#2575fc" opacity="0.34" filter="url(#glow)"/>
  <circle cx="608" cy="112" r="2" fill="#2575fc" opacity="0.30" filter="url(#glow)"/>

</svg>
